<svg width="120" height="120" viewBox="0 0 120 120" xmlns="http://www.w3.org/2000/svg">
  <defs>
    <linearGradient id="coinGradient" x1="0%" y1="0%" x2="100%" y2="100%">
      <stop offset="0%" style="stop-color:#ef4444;stop-opacity:1" />
      <stop offset="100%" style="stop-color:#dc2626;stop-opacity:1" />
    </linearGradient>
    <linearGradient id="shadowGradient" x1="0%" y1="0%" x2="100%" y2="100%">
      <stop offset="0%" style="stop-color:#1f2937;stop-opacity:0.1" />
      <stop offset="100%" style="stop-color:#1f2937;stop-opacity:0.3" />
    </linearGradient>
  </defs>
  
  <!-- Outer circle shadow -->
  <circle cx="62" cy="62" r="50" fill="url(#shadowGradient)" opacity="0.2"/>
  
  <!-- Main coin circle -->
  <circle cx="60" cy="60" r="50" fill="url(#coinGradient)" stroke="#dc2626" stroke-width="2"/>
  
  <!-- Inner highlight circle -->
  <circle cx="60" cy="60" r="42" fill="none" stroke="#ffffff" stroke-width="1" opacity="0.3"/>
  
  <!-- Dollar sign -->
  <path d="M60 25 L60 35 M60 85 L60 95 M45 40 Q45 32 52 32 L68 32 Q75 32 75 40 Q75 48 68 48 L52 48 Q45 48 45 56 Q45 64 52 64 L68 64 Q75 64 75 72 Q75 80 68 80 L52 80 Q45 80 45 88" 
        stroke="#ffffff" stroke-width="4" stroke-linecap="round" stroke-linejoin="round" fill="none"/>
  
  <!-- Connecting line for dollar sign -->
  <line x1="52" y1="48" x2="68" y2="48" stroke="#ffffff" stroke-width="4" stroke-linecap="round"/>
</svg>