<svg xmlns="http://www.w3.org/2000/svg" viewBox="0 0 200 200" width="200" height="200">
  <!-- Outer circle background -->
  <circle cx="100" cy="100" r="95" fill="#1e293b" stroke="#3b82f6" stroke-width="3"/>
  
  <!-- Inner gradient background -->
  <defs>
    <radialGradient id="bgGradient" cx="50%" cy="50%" r="50%">
      <stop offset="0%" style="stop-color:#334155;stop-opacity:1" />
      <stop offset="100%" style="stop-color:#1e293b;stop-opacity:1" />
    </radialGradient>
    
    <!-- Brain gradient -->
    <linearGradient id="brainGradient" x1="0%" y1="0%" x2="100%" y2="100%">
      <stop offset="0%" style="stop-color:#60a5fa;stop-opacity:0.8" />
      <stop offset="100%" style="stop-color:#3b82f6;stop-opacity:1" />
    </linearGradient>
    
    <!-- Tumor glow effect -->
    <radialGradient id="tumorGlow" cx="50%" cy="50%" r="50%">
      <stop offset="0%" style="stop-color:#fef2f2;stop-opacity:1" />
      <stop offset="50%" style="stop-color:#ef4444;stop-opacity:0.9" />
      <stop offset="100%" style="stop-color:#dc2626;stop-opacity:0.7" />
    </radialGradient>
  </defs>
  
  <circle cx="100" cy="100" r="88" fill="url(#bgGradient)"/>
  
  <!-- Brain outline - centered and simplified -->
  <g transform="translate(100, 100)">
    <!-- Main brain shape -->
    <path d="M-35 -25 C-25 -35, -5 -38, 15 -30 C35 -25, 45 -10, 42 10 C40 25, 30 35, 15 38 C0 40, -20 35, -35 25 C-45 10, -48 -5, -35 -25 Z" 
          fill="url(#brainGradient)" 
          stroke="#60a5fa" 
          stroke-width="2"/>
    
    <!-- Brain hemisphere division -->
    <path d="M0 -28 C2 -15, 3 0, 2 15 C1 25, -1 35, 0 38" 
          fill="none" 
          stroke="#93c5fd" 
          stroke-width="1.5" 
          opacity="0.8"/>
    
    <!-- Brain surface details -->
    <path d="M-25 -10 C-15 -12, -5 -8, 5 -5" 
          fill="none" 
          stroke="#93c5fd" 
          stroke-width="1" 
          opacity="0.6"/>
    <path d="M10 8 C20 12, 28 18, 32 25" 
          fill="none" 
          stroke="#93c5fd" 
          stroke-width="1" 
          opacity="0.6"/>
    
    <!-- Tumor detection point -->
    <circle cx="18" cy="5" r="8" 
            fill="url(#tumorGlow)" 
            opacity="0.9"/>
    
    <!-- Detection crosshairs -->
    <g stroke="#fef2f2" stroke-width="1.5" opacity="0.9">
      <line x1="8" y1="5" x2="13" y2="5"/>
      <line x1="23" y1="5" x2="28" y2="5"/>
      <line x1="18" y1="-5" x2="18" y2="0"/>
      <line x1="18" y1="10" x2="18" y2="15"/>
    </g>
    
    <!-- Scanning arc effect -->
    <path d="M-50 0 A50 50 0 0 1 50 0" 
          fill="none" 
          stroke="#3b82f6" 
          stroke-width="2" 
          opacity="0.4" 
          stroke-dasharray="3,3">
      <animateTransform attributeName="transform" 
                        type="rotate" 
                        values="0;360" 
                        dur="4s" 
                        repeatCount="indefinite"/>
    </path>
  </g>
  
  <!-- Corner detection indicators -->
  <g stroke="#3b82f6" stroke-width="2" fill="none" opacity="0.7">
    <!-- Top left -->
    <path d="M25 25 L25 35 L35 35"/>
    <!-- Top right -->
    <path d="M175 25 L175 35 L165 35"/>
    <!-- Bottom left -->
    <path d="M25 175 L25 165 L35 165"/>
    <!-- Bottom right -->
    <path d="M175 175 L175 165 L165 165"/>
  </g>
  
  <!-- Subtle pulse effect -->
  <circle cx="100" cy="100" r="95" 
          fill="none" 
          stroke="#3b82f6" 
          stroke-width="1" 
          opacity="0.3">
    <animate attributeName="r" 
             values="95;100;95" 
             dur="2s" 
             repeatCount="indefinite"/>
    <animate attributeName="opacity" 
             values="0.3;0.1;0.3" 
             dur="2s" 
             repeatCount="indefinite"/>
  </circle>
</svg>